<svg width="418" height="418" xmlns="http://www.w3.org/2000/svg" xmlns:xlink="http://www.w3.org/1999/xlink" xml:space="preserve" overflow="hidden"><defs><clipPath id="clip0"><rect x="530" y="72" width="418" height="418"/></clipPath><clipPath id="clip1"><rect x="531" y="73" width="417" height="417"/></clipPath><clipPath id="clip2"><rect x="531" y="73" width="417" height="417"/></clipPath><clipPath id="clip3"><rect x="531" y="73" width="417" height="417"/></clipPath></defs><g clip-path="url(#clip0)" transform="translate(-530 -72)"><g clip-path="url(#clip1)"><g clip-path="url(#clip2)"><g clip-path="url(#clip3)"><path d="M763.825 304.522C778.594 316.25 792.494 336.666 802.919 359.688L676.081 359.688C686.941 336.666 700.406 315.816 715.175 304.522 722.125 298.875 726.469 290.622 726.469 281.5 726.469 272.378 722.125 264.125 715.175 258.478 685.638 235.456 660.009 176.381 655.666 133.812L823.769 133.812C818.991 176.381 793.797 235.456 764.259 258.478 756.875 264.125 752.531 272.378 752.531 281.5 752.531 290.622 756.875 298.875 763.825 304.522ZM849.397 133.812 861.125 133.812 861.125 107.75 617.875 107.75 617.875 133.812 629.169 133.812C633.947 182.028 661.747 252.397 702.144 281.5 661.747 310.603 633.513 380.972 629.169 429.188L617.875 429.188 617.875 455.25 861.125 455.25 861.125 429.188 849.397 429.188C845.053 380.972 816.819 310.603 776.422 281.5 816.819 252.397 845.053 182.028 849.397 133.812Z" fill="#FFFFFF" fill-rule="nonzero" fill-opacity="1"/></g></g></g></g></svg>